<svg width="163" height="46" viewBox="0 0 163 46" fill="none" xmlns="http://www.w3.org/2000/svg">
<path d="M73.685 9.39413H79.5329L69.8738 35.1659H63.6831L54.0039 9.39413H59.8518L66.7886 28.9958L73.685 9.39413Z" fill="#17181A"/>
<path d="M101.575 9.3938H106.838V35.1656H101.575V31.4509C99.6052 34.3814 96.3372 36.0662 92.9038 35.9211C89.5965 35.9586 86.4297 34.5319 84.1925 31.9966C81.8028 29.3842 80.5174 25.8849 80.6232 22.2797C80.5386 18.6953 81.8389 15.2252 84.2328 12.6468C86.4461 10.0913 89.598 8.63423 92.9038 8.63828C96.3107 8.45997 99.5732 10.0866 101.575 12.9616V9.3938ZM88.1448 28.2819C91.2686 31.4135 96.2126 31.4135 99.3364 28.2819C100.828 26.7014 101.636 24.5569 101.575 22.3427C101.641 20.1462 100.83 18.0192 99.3364 16.4664C96.2126 13.3347 91.2686 13.3347 88.1448 16.4664C86.6508 18.0192 85.8406 20.1462 85.9065 22.3427C85.8618 24.5352 86.6688 26.6538 88.1448 28.219V28.2819Z" fill="#17181A"/>
<path d="M129.945 9.39413H135.793L126.134 35.1659H119.943L110.284 9.39413H116.132L122.968 28.9748L129.945 9.39413Z" fill="#17181A"/>
<path d="M142.429 24.6512C142.742 26.4707 143.717 28.0945 145.151 29.1844C146.688 30.2533 148.507 30.7963 150.354 30.7374C152.877 30.8981 155.298 29.6818 156.746 27.5264L161.163 30.2127C158.771 33.9788 154.646 36.1495 150.314 35.9211C146.696 36.085 143.171 34.7054 140.554 32.1015C138.079 29.5271 136.737 26.0033 136.843 22.3637C136.708 18.7041 138.037 15.1499 140.514 12.5483C142.99 9.94677 146.393 8.53093 149.91 8.63828C153.297 8.53106 156.558 9.98205 158.823 12.6048C161.152 15.2186 162.411 18.674 162.332 22.2377C162.316 23.0181 162.248 23.7964 162.13 24.5673L142.429 24.6512ZM142.429 20.1181H156.988C156.534 16.4384 153.474 13.7163 149.91 13.822C148.115 13.7538 146.355 14.3569 144.95 15.522C143.598 16.6882 142.69 18.3178 142.389 20.1181H142.429Z" fill="#17181A"/>
<path d="M9.1508 0H0L5.5003 11.4319H0.589318L3.20851 18.5533H8.88888L11.2462 23.3748H5.5003L8.62696 30.4963H14.913L22.4923 46L29.5478 30.4963L35.2936 30.2407L38.9605 23.1193H33.2146L35.31 18.5363H40.7939L44.1989 11.1763H38.7149L43.937 0H34.5242L22.2304 26.9356L9.1508 0Z" fill="#17181A"/>
</svg>
